<svg width="1440" height="320" viewBox="0 0 1440 320" fill="none" xmlns="http://www.w3.org/2000/svg">
<path d="M491.807 301V299.466L497.568 293.159C498.244 292.42 498.801 291.778 499.239 291.233C499.676 290.682 500 290.165 500.21 289.682C500.426 289.193 500.534 288.682 500.534 288.148C500.534 287.534 500.386 287.003 500.091 286.554C499.801 286.105 499.403 285.759 498.898 285.514C498.392 285.27 497.824 285.148 497.193 285.148C496.523 285.148 495.938 285.287 495.438 285.565C494.943 285.838 494.56 286.222 494.287 286.716C494.02 287.21 493.886 287.79 493.886 288.455H491.875C491.875 287.432 492.111 286.534 492.582 285.761C493.054 284.989 493.696 284.386 494.509 283.955C495.327 283.523 496.244 283.307 497.261 283.307C498.284 283.307 499.19 283.523 499.98 283.955C500.77 284.386 501.389 284.969 501.838 285.702C502.287 286.435 502.511 287.25 502.511 288.148C502.511 288.79 502.395 289.418 502.162 290.031C501.935 290.639 501.537 291.318 500.969 292.068C500.406 292.812 499.625 293.722 498.625 294.795L494.705 298.989V299.125H502.818V301H491.807ZM512.031 301.239C510.747 301.239 509.653 300.889 508.75 300.19C507.847 299.486 507.156 298.466 506.679 297.131C506.202 295.79 505.963 294.17 505.963 292.273C505.963 290.386 506.202 288.776 506.679 287.44C507.162 286.099 507.855 285.077 508.759 284.372C509.668 283.662 510.759 283.307 512.031 283.307C513.304 283.307 514.392 283.662 515.295 284.372C516.205 285.077 516.898 286.099 517.375 287.44C517.858 288.776 518.099 290.386 518.099 292.273C518.099 294.17 517.861 295.79 517.384 297.131C516.906 298.466 516.216 299.486 515.312 300.19C514.409 300.889 513.315 301.239 512.031 301.239ZM512.031 299.364C513.304 299.364 514.293 298.75 514.997 297.523C515.702 296.295 516.054 294.545 516.054 292.273C516.054 290.761 515.892 289.474 515.568 288.412C515.25 287.349 514.79 286.54 514.188 285.983C513.591 285.426 512.872 285.148 512.031 285.148C510.77 285.148 509.784 285.77 509.074 287.014C508.364 288.253 508.009 290.006 508.009 292.273C508.009 293.784 508.168 295.068 508.486 296.125C508.804 297.182 509.261 297.986 509.858 298.537C510.46 299.088 511.185 299.364 512.031 299.364ZM521.338 301V299.466L527.099 293.159C527.776 292.42 528.332 291.778 528.77 291.233C529.207 290.682 529.531 290.165 529.741 289.682C529.957 289.193 530.065 288.682 530.065 288.148C530.065 287.534 529.918 287.003 529.622 286.554C529.332 286.105 528.935 285.759 528.429 285.514C527.923 285.27 527.355 285.148 526.724 285.148C526.054 285.148 525.469 285.287 524.969 285.565C524.474 285.838 524.091 286.222 523.818 286.716C523.551 287.21 523.418 287.79 523.418 288.455H521.406C521.406 287.432 521.642 286.534 522.114 285.761C522.585 284.989 523.227 284.386 524.04 283.955C524.858 283.523 525.776 283.307 526.793 283.307C527.815 283.307 528.722 283.523 529.511 283.955C530.301 284.386 530.92 284.969 531.369 285.702C531.818 286.435 532.043 287.25 532.043 288.148C532.043 288.79 531.926 289.418 531.693 290.031C531.466 290.639 531.068 291.318 530.5 292.068C529.938 292.812 529.156 293.722 528.156 294.795L524.236 298.989V299.125H532.349V301H521.338ZM535.869 301V299.466L541.631 293.159C542.307 292.42 542.864 291.778 543.301 291.233C543.739 290.682 544.063 290.165 544.273 289.682C544.489 289.193 544.597 288.682 544.597 288.148C544.597 287.534 544.449 287.003 544.153 286.554C543.864 286.105 543.466 285.759 542.96 285.514C542.455 285.27 541.886 285.148 541.256 285.148C540.585 285.148 540 285.287 539.5 285.565C539.006 285.838 538.622 286.222 538.349 286.716C538.082 287.21 537.949 287.79 537.949 288.455H535.938C535.938 287.432 536.173 286.534 536.645 285.761C537.116 284.989 537.759 284.386 538.571 283.955C539.389 283.523 540.307 283.307 541.324 283.307C542.347 283.307 543.253 283.523 544.043 283.955C544.832 284.386 545.452 284.969 545.901 285.702C546.349 286.435 546.574 287.25 546.574 288.148C546.574 288.79 546.457 289.418 546.224 290.031C545.997 290.639 545.599 291.318 545.031 292.068C544.469 292.812 543.688 293.722 542.688 294.795L538.767 298.989V299.125H546.881V301H535.869ZM558.173 301H555.957L562.366 283.545H564.548L570.957 301H568.741L563.526 286.307H563.389L558.173 301ZM558.991 294.182H567.923V296.057H558.991V294.182ZM575.415 283.545V301H573.403V283.545H575.415ZM581.11 283.545V301H579.099V283.545H581.11ZM591.817 301V283.545H597.714C599.078 283.545 600.197 283.778 601.072 284.244C601.947 284.705 602.595 285.338 603.016 286.145C603.436 286.952 603.646 287.869 603.646 288.898C603.646 289.926 603.436 290.838 603.016 291.634C602.595 292.429 601.95 293.054 601.081 293.509C600.212 293.957 599.101 294.182 597.749 294.182H592.976V292.273H597.68C598.612 292.273 599.362 292.136 599.93 291.864C600.504 291.591 600.919 291.205 601.175 290.705C601.436 290.199 601.567 289.597 601.567 288.898C601.567 288.199 601.436 287.588 601.175 287.065C600.913 286.543 600.496 286.139 599.922 285.855C599.348 285.565 598.589 285.42 597.646 285.42H593.93V301H591.817ZM600.033 293.159L604.328 301H601.874L597.646 293.159H600.033ZM606.896 301V287.909H608.907V301H606.896ZM607.918 285.727C607.526 285.727 607.188 285.594 606.904 285.327C606.626 285.06 606.487 284.739 606.487 284.364C606.487 283.989 606.626 283.668 606.904 283.401C607.188 283.134 607.526 283 607.918 283C608.31 283 608.646 283.134 608.924 283.401C609.208 283.668 609.35 283.989 609.35 284.364C609.35 284.739 609.208 285.06 608.924 285.327C608.646 285.594 608.31 285.727 607.918 285.727ZM617.875 306.182C616.903 306.182 616.068 306.057 615.369 305.807C614.67 305.562 614.088 305.239 613.622 304.835C613.162 304.438 612.795 304.011 612.523 303.557L614.125 302.432C614.307 302.67 614.537 302.943 614.815 303.25C615.094 303.562 615.474 303.832 615.957 304.06C616.446 304.293 617.085 304.409 617.875 304.409C618.932 304.409 619.804 304.153 620.491 303.642C621.179 303.131 621.523 302.33 621.523 301.239V298.58H621.352C621.205 298.818 620.994 299.114 620.722 299.466C620.455 299.812 620.068 300.122 619.562 300.395C619.062 300.662 618.386 300.795 617.534 300.795C616.477 300.795 615.528 300.545 614.688 300.045C613.852 299.545 613.19 298.818 612.702 297.864C612.219 296.909 611.977 295.75 611.977 294.386C611.977 293.045 612.213 291.878 612.685 290.884C613.156 289.884 613.813 289.111 614.653 288.565C615.494 288.014 616.466 287.739 617.568 287.739C618.42 287.739 619.097 287.881 619.597 288.165C620.102 288.443 620.489 288.761 620.756 289.119C621.028 289.472 621.239 289.761 621.386 289.989H621.591V287.909H623.534V301.375C623.534 302.5 623.278 303.415 622.767 304.119C622.261 304.83 621.58 305.349 620.722 305.679C619.869 306.014 618.92 306.182 617.875 306.182ZM617.807 298.989C618.614 298.989 619.295 298.804 619.852 298.435C620.409 298.065 620.832 297.534 621.122 296.841C621.412 296.148 621.557 295.318 621.557 294.352C621.557 293.409 621.415 292.577 621.131 291.855C620.847 291.134 620.426 290.568 619.869 290.159C619.313 289.75 618.625 289.545 617.807 289.545C616.955 289.545 616.244 289.761 615.676 290.193C615.114 290.625 614.69 291.205 614.406 291.932C614.128 292.659 613.989 293.466 613.989 294.352C613.989 295.261 614.131 296.065 614.415 296.764C614.705 297.457 615.131 298.003 615.693 298.401C616.261 298.793 616.966 298.989 617.807 298.989ZM629.227 293.125V301H627.216V283.545H629.227V289.955H629.398C629.705 289.278 630.165 288.741 630.778 288.344C631.398 287.94 632.222 287.739 633.25 287.739C634.142 287.739 634.923 287.918 635.594 288.276C636.264 288.628 636.784 289.17 637.153 289.903C637.528 290.631 637.716 291.557 637.716 292.682V301H635.705V292.818C635.705 291.778 635.435 290.974 634.895 290.406C634.361 289.832 633.619 289.545 632.67 289.545C632.011 289.545 631.42 289.685 630.898 289.963C630.381 290.241 629.972 290.648 629.67 291.182C629.375 291.716 629.227 292.364 629.227 293.125ZM647.089 287.909V289.614H640.305V287.909H647.089ZM642.282 284.773H644.293V297.25C644.293 297.818 644.376 298.244 644.54 298.528C644.711 298.807 644.927 298.994 645.188 299.091C645.455 299.182 645.737 299.227 646.032 299.227C646.254 299.227 646.435 299.216 646.577 299.193C646.719 299.165 646.833 299.142 646.918 299.125L647.327 300.932C647.191 300.983 647.001 301.034 646.756 301.085C646.512 301.142 646.202 301.17 645.827 301.17C645.259 301.17 644.702 301.048 644.157 300.804C643.617 300.56 643.168 300.188 642.81 299.688C642.458 299.188 642.282 298.557 642.282 297.795V284.773ZM659.153 290.841L657.346 291.352C657.232 291.051 657.065 290.759 656.843 290.474C656.627 290.185 656.332 289.946 655.957 289.759C655.582 289.571 655.102 289.477 654.516 289.477C653.715 289.477 653.048 289.662 652.513 290.031C651.985 290.395 651.721 290.858 651.721 291.42C651.721 291.92 651.903 292.315 652.266 292.605C652.63 292.895 653.198 293.136 653.971 293.33L655.914 293.807C657.085 294.091 657.957 294.526 658.531 295.111C659.104 295.69 659.391 296.437 659.391 297.352C659.391 298.102 659.175 298.773 658.744 299.364C658.317 299.955 657.721 300.42 656.954 300.761C656.187 301.102 655.295 301.273 654.278 301.273C652.942 301.273 651.837 300.983 650.962 300.403C650.087 299.824 649.533 298.977 649.3 297.864L651.21 297.386C651.391 298.091 651.735 298.619 652.241 298.972C652.752 299.324 653.42 299.5 654.244 299.5C655.181 299.5 655.925 299.301 656.477 298.903C657.033 298.5 657.312 298.017 657.312 297.455C657.312 297 657.153 296.619 656.835 296.312C656.516 296 656.028 295.767 655.369 295.614L653.187 295.102C651.988 294.818 651.107 294.378 650.545 293.781C649.988 293.179 649.71 292.426 649.71 291.523C649.71 290.784 649.917 290.131 650.332 289.562C650.752 288.994 651.323 288.548 652.045 288.224C652.772 287.901 653.596 287.739 654.516 287.739C655.812 287.739 656.829 288.023 657.567 288.591C658.312 289.159 658.84 289.909 659.153 290.841ZM669.442 301V283.545H675.339C676.703 283.545 677.822 283.778 678.697 284.244C679.572 284.705 680.22 285.338 680.641 286.145C681.061 286.952 681.271 287.869 681.271 288.898C681.271 289.926 681.061 290.838 680.641 291.634C680.22 292.429 679.575 293.054 678.706 293.509C677.837 293.957 676.726 294.182 675.374 294.182H670.601V292.273H675.305C676.237 292.273 676.987 292.136 677.555 291.864C678.129 291.591 678.544 291.205 678.8 290.705C679.061 290.199 679.192 289.597 679.192 288.898C679.192 288.199 679.061 287.588 678.8 287.065C678.538 286.543 678.121 286.139 677.547 285.855C676.973 285.565 676.214 285.42 675.271 285.42H671.555V301H669.442ZM677.658 293.159L681.953 301H679.499L675.271 293.159H677.658ZM689.869 301.273C688.607 301.273 687.519 300.994 686.604 300.438C685.695 299.875 684.994 299.091 684.499 298.085C684.011 297.074 683.766 295.898 683.766 294.557C683.766 293.216 684.011 292.034 684.499 291.011C684.994 289.983 685.681 289.182 686.562 288.608C687.448 288.028 688.482 287.739 689.664 287.739C690.346 287.739 691.019 287.852 691.684 288.08C692.349 288.307 692.954 288.676 693.499 289.188C694.045 289.693 694.479 290.364 694.803 291.199C695.127 292.034 695.289 293.062 695.289 294.284V295.136H685.198V293.398H693.244C693.244 292.659 693.096 292 692.8 291.42C692.511 290.841 692.096 290.384 691.556 290.048C691.022 289.713 690.391 289.545 689.664 289.545C688.863 289.545 688.17 289.744 687.585 290.142C687.005 290.534 686.559 291.045 686.246 291.676C685.934 292.307 685.778 292.983 685.778 293.705V294.864C685.778 295.852 685.948 296.69 686.289 297.378C686.636 298.06 687.116 298.58 687.729 298.938C688.343 299.29 689.056 299.466 689.869 299.466C690.397 299.466 690.874 299.392 691.3 299.244C691.732 299.091 692.104 298.864 692.417 298.562C692.729 298.256 692.971 297.875 693.141 297.42L695.085 297.966C694.88 298.625 694.536 299.205 694.053 299.705C693.57 300.199 692.974 300.585 692.263 300.864C691.553 301.136 690.755 301.273 689.869 301.273ZM707.621 290.841L705.815 291.352C705.701 291.051 705.533 290.759 705.312 290.474C705.096 290.185 704.8 289.946 704.425 289.759C704.05 289.571 703.57 289.477 702.985 289.477C702.184 289.477 701.516 289.662 700.982 290.031C700.454 290.395 700.19 290.858 700.19 291.42C700.19 291.92 700.371 292.315 700.735 292.605C701.099 292.895 701.667 293.136 702.44 293.33L704.383 293.807C705.553 294.091 706.425 294.526 706.999 295.111C707.573 295.69 707.86 296.437 707.86 297.352C707.86 298.102 707.644 298.773 707.212 299.364C706.786 299.955 706.19 300.42 705.423 300.761C704.656 301.102 703.763 301.273 702.746 301.273C701.411 301.273 700.306 300.983 699.431 300.403C698.556 299.824 698.002 298.977 697.769 297.864L699.678 297.386C699.86 298.091 700.204 298.619 700.71 298.972C701.221 299.324 701.888 299.5 702.712 299.5C703.65 299.5 704.394 299.301 704.945 298.903C705.502 298.5 705.781 298.017 705.781 297.455C705.781 297 705.621 296.619 705.303 296.312C704.985 296 704.496 295.767 703.837 295.614L701.656 295.102C700.457 294.818 699.576 294.378 699.013 293.781C698.457 293.179 698.178 292.426 698.178 291.523C698.178 290.784 698.386 290.131 698.8 289.562C699.221 288.994 699.792 288.548 700.513 288.224C701.241 287.901 702.065 287.739 702.985 287.739C704.281 287.739 705.298 288.023 706.036 288.591C706.781 289.159 707.309 289.909 707.621 290.841ZM716.376 301.273C715.115 301.273 714.027 300.994 713.112 300.438C712.203 299.875 711.501 299.091 711.007 298.085C710.518 297.074 710.274 295.898 710.274 294.557C710.274 293.216 710.518 292.034 711.007 291.011C711.501 289.983 712.189 289.182 713.07 288.608C713.956 288.028 714.99 287.739 716.172 287.739C716.854 287.739 717.527 287.852 718.192 288.08C718.857 288.307 719.462 288.676 720.007 289.188C720.553 289.693 720.987 290.364 721.311 291.199C721.635 292.034 721.797 293.062 721.797 294.284V295.136H711.706V293.398H719.751C719.751 292.659 719.604 292 719.308 291.42C719.018 290.841 718.604 290.384 718.064 290.048C717.53 289.713 716.899 289.545 716.172 289.545C715.371 289.545 714.678 289.744 714.092 290.142C713.513 290.534 713.067 291.045 712.754 291.676C712.442 292.307 712.286 292.983 712.286 293.705V294.864C712.286 295.852 712.456 296.69 712.797 297.378C713.143 298.06 713.624 298.58 714.237 298.938C714.851 299.29 715.564 299.466 716.376 299.466C716.905 299.466 717.382 299.392 717.808 299.244C718.24 299.091 718.612 298.864 718.925 298.562C719.237 298.256 719.479 297.875 719.649 297.42L721.592 297.966C721.388 298.625 721.044 299.205 720.561 299.705C720.078 300.199 719.482 300.585 718.771 300.864C718.061 301.136 717.263 301.273 716.376 301.273ZM724.857 301V287.909H726.8V289.886H726.936C727.175 289.239 727.607 288.713 728.232 288.31C728.857 287.906 729.561 287.705 730.345 287.705C730.493 287.705 730.678 287.707 730.899 287.713C731.121 287.719 731.288 287.727 731.402 287.739V289.784C731.334 289.767 731.178 289.741 730.933 289.707C730.695 289.668 730.442 289.648 730.175 289.648C729.538 289.648 728.97 289.781 728.47 290.048C727.976 290.31 727.584 290.673 727.294 291.139C727.01 291.599 726.868 292.125 726.868 292.716V301H724.857ZM744.889 287.909L740.048 301H738.003L733.162 287.909H735.344L738.957 298.341H739.094L742.707 287.909H744.889ZM752.564 301.273C751.303 301.273 750.214 300.994 749.3 300.438C748.391 299.875 747.689 299.091 747.195 298.085C746.706 297.074 746.462 295.898 746.462 294.557C746.462 293.216 746.706 292.034 747.195 291.011C747.689 289.983 748.376 289.182 749.257 288.608C750.143 288.028 751.178 287.739 752.359 287.739C753.041 287.739 753.714 287.852 754.379 288.08C755.044 288.307 755.649 288.676 756.195 289.188C756.74 289.693 757.175 290.364 757.499 291.199C757.822 292.034 757.984 293.062 757.984 294.284V295.136H747.893V293.398H755.939C755.939 292.659 755.791 292 755.496 291.42C755.206 290.841 754.791 290.384 754.251 290.048C753.717 289.713 753.087 289.545 752.359 289.545C751.558 289.545 750.865 289.744 750.28 290.142C749.7 290.534 749.254 291.045 748.942 291.676C748.629 292.307 748.473 292.983 748.473 293.705V294.864C748.473 295.852 748.643 296.69 748.984 297.378C749.331 298.06 749.811 298.58 750.425 298.938C751.038 299.29 751.751 299.466 752.564 299.466C753.092 299.466 753.57 299.392 753.996 299.244C754.428 299.091 754.8 298.864 755.112 298.562C755.425 298.256 755.666 297.875 755.837 297.42L757.78 297.966C757.575 298.625 757.232 299.205 756.749 299.705C756.266 300.199 755.669 300.585 754.959 300.864C754.249 301.136 753.45 301.273 752.564 301.273ZM765.987 301.273C764.896 301.273 763.933 300.997 763.098 300.446C762.263 299.889 761.609 299.105 761.138 298.094C760.666 297.077 760.43 295.875 760.43 294.489C760.43 293.114 760.666 291.92 761.138 290.909C761.609 289.898 762.266 289.116 763.107 288.565C763.947 288.014 764.919 287.739 766.021 287.739C766.874 287.739 767.547 287.881 768.041 288.165C768.541 288.443 768.922 288.761 769.183 289.119C769.45 289.472 769.658 289.761 769.805 289.989H769.976V283.545H771.987V301H770.044V298.989H769.805C769.658 299.227 769.447 299.528 769.175 299.892C768.902 300.25 768.513 300.571 768.007 300.855C767.501 301.134 766.828 301.273 765.987 301.273ZM766.26 299.466C767.067 299.466 767.749 299.256 768.305 298.835C768.862 298.409 769.286 297.821 769.575 297.071C769.865 296.315 770.01 295.443 770.01 294.455C770.01 293.477 769.868 292.622 769.584 291.889C769.3 291.151 768.879 290.577 768.322 290.168C767.766 289.753 767.078 289.545 766.26 289.545C765.408 289.545 764.697 289.764 764.129 290.202C763.567 290.634 763.143 291.222 762.859 291.966C762.581 292.705 762.442 293.534 762.442 294.455C762.442 295.386 762.584 296.233 762.868 296.994C763.158 297.75 763.584 298.352 764.146 298.801C764.714 299.244 765.419 299.466 766.26 299.466ZM782.973 301V283.545H784.984V289.989H785.155C785.303 289.761 785.507 289.472 785.768 289.119C786.036 288.761 786.416 288.443 786.911 288.165C787.411 287.881 788.087 287.739 788.939 287.739C790.041 287.739 791.013 288.014 791.854 288.565C792.695 289.116 793.351 289.898 793.822 290.909C794.294 291.92 794.53 293.114 794.53 294.489C794.53 295.875 794.294 297.077 793.822 298.094C793.351 299.105 792.697 299.889 791.862 300.446C791.027 300.997 790.064 301.273 788.973 301.273C788.132 301.273 787.459 301.134 786.953 300.855C786.447 300.571 786.058 300.25 785.786 299.892C785.513 299.528 785.303 299.227 785.155 298.989H784.916V301H782.973ZM784.95 294.455C784.95 295.443 785.095 296.315 785.385 297.071C785.675 297.821 786.098 298.409 786.655 298.835C787.212 299.256 787.893 299.466 788.7 299.466C789.541 299.466 790.243 299.244 790.805 298.801C791.374 298.352 791.8 297.75 792.084 296.994C792.374 296.233 792.518 295.386 792.518 294.455C792.518 293.534 792.376 292.705 792.092 291.966C791.814 291.222 791.391 290.634 790.822 290.202C790.26 289.764 789.553 289.545 788.7 289.545C787.882 289.545 787.195 289.753 786.638 290.168C786.081 290.577 785.661 291.151 785.376 291.889C785.092 292.622 784.95 293.477 784.95 294.455ZM798.433 305.909C798.092 305.909 797.788 305.881 797.521 305.824C797.254 305.773 797.07 305.722 796.967 305.67L797.479 303.898C797.967 304.023 798.399 304.068 798.774 304.034C799.149 304 799.482 303.832 799.771 303.531C800.067 303.236 800.337 302.756 800.581 302.091L800.956 301.068L796.115 287.909H798.297L801.911 298.341H802.047L805.661 287.909H807.842L802.286 302.909C802.036 303.585 801.726 304.145 801.357 304.588C800.987 305.037 800.558 305.369 800.07 305.585C799.587 305.801 799.041 305.909 798.433 305.909ZM817.52 301V283.545H819.634V292.205H819.838L827.679 283.545H830.44L823.111 291.42L830.44 301H827.884L821.815 292.886L819.634 295.341V301H817.52ZM837.431 301.273C836.17 301.273 835.082 300.994 834.167 300.438C833.258 299.875 832.556 299.091 832.062 298.085C831.573 297.074 831.329 295.898 831.329 294.557C831.329 293.216 831.573 292.034 832.062 291.011C832.556 289.983 833.244 289.182 834.124 288.608C835.011 288.028 836.045 287.739 837.227 287.739C837.908 287.739 838.582 287.852 839.246 288.08C839.911 288.307 840.516 288.676 841.062 289.188C841.607 289.693 842.042 290.364 842.366 291.199C842.69 292.034 842.852 293.062 842.852 294.284V295.136H832.761V293.398H840.806C840.806 292.659 840.658 292 840.363 291.42C840.073 290.841 839.658 290.384 839.119 290.048C838.585 289.713 837.954 289.545 837.227 289.545C836.425 289.545 835.732 289.744 835.147 290.142C834.567 290.534 834.121 291.045 833.809 291.676C833.496 292.307 833.34 292.983 833.34 293.705V294.864C833.34 295.852 833.511 296.69 833.852 297.378C834.198 298.06 834.678 298.58 835.292 298.938C835.906 299.29 836.619 299.466 837.431 299.466C837.96 299.466 838.437 299.392 838.863 299.244C839.295 299.091 839.667 298.864 839.979 298.562C840.292 298.256 840.533 297.875 840.704 297.42L842.647 297.966C842.442 298.625 842.099 299.205 841.616 299.705C841.133 300.199 840.536 300.585 839.826 300.864C839.116 301.136 838.317 301.273 837.431 301.273ZM847.923 283.545V301H845.911V283.545H847.923ZM856.925 301.273C855.743 301.273 854.706 300.991 853.814 300.429C852.928 299.866 852.234 299.08 851.734 298.068C851.24 297.057 850.993 295.875 850.993 294.523C850.993 293.159 851.24 291.969 851.734 290.952C852.234 289.935 852.928 289.145 853.814 288.582C854.706 288.02 855.743 287.739 856.925 287.739C858.107 287.739 859.141 288.02 860.027 288.582C860.919 289.145 861.612 289.935 862.107 290.952C862.607 291.969 862.857 293.159 862.857 294.523C862.857 295.875 862.607 297.057 862.107 298.068C861.612 299.08 860.919 299.866 860.027 300.429C859.141 300.991 858.107 301.273 856.925 301.273ZM856.925 299.466C857.822 299.466 858.561 299.236 859.141 298.776C859.72 298.315 860.149 297.71 860.428 296.96C860.706 296.21 860.845 295.398 860.845 294.523C860.845 293.648 860.706 292.832 860.428 292.077C860.149 291.321 859.72 290.71 859.141 290.244C858.561 289.778 857.822 289.545 856.925 289.545C856.027 289.545 855.288 289.778 854.709 290.244C854.129 290.71 853.7 291.321 853.422 292.077C853.143 292.832 853.004 293.648 853.004 294.523C853.004 295.398 853.143 296.21 853.422 296.96C853.7 297.71 854.129 298.315 854.709 298.776C855.288 299.236 856.027 299.466 856.925 299.466ZM865.927 301V287.909H867.87V289.955H868.04C868.313 289.256 868.754 288.713 869.362 288.327C869.969 287.935 870.7 287.739 871.552 287.739C872.415 287.739 873.134 287.935 873.708 288.327C874.288 288.713 874.739 289.256 875.063 289.955H875.2C875.535 289.278 876.038 288.741 876.708 288.344C877.379 287.94 878.183 287.739 879.12 287.739C880.29 287.739 881.248 288.105 881.992 288.838C882.737 289.565 883.109 290.699 883.109 292.239V301H881.097V292.239C881.097 291.273 880.833 290.582 880.305 290.168C879.776 289.753 879.154 289.545 878.438 289.545C877.518 289.545 876.805 289.824 876.299 290.381C875.793 290.932 875.54 291.631 875.54 292.477V301H873.495V292.034C873.495 291.29 873.254 290.69 872.771 290.236C872.288 289.776 871.665 289.545 870.904 289.545C870.381 289.545 869.893 289.685 869.438 289.963C868.989 290.241 868.626 290.628 868.347 291.122C868.075 291.611 867.938 292.176 867.938 292.818V301H865.927ZM886.786 305.909V287.909H888.729V289.989H888.968C889.116 289.761 889.32 289.472 889.582 289.119C889.849 288.761 890.229 288.443 890.724 288.165C891.224 287.881 891.9 287.739 892.752 287.739C893.854 287.739 894.826 288.014 895.667 288.565C896.508 289.116 897.164 289.898 897.636 290.909C898.107 291.92 898.343 293.114 898.343 294.489C898.343 295.875 898.107 297.077 897.636 298.094C897.164 299.105 896.511 299.889 895.675 300.446C894.84 300.997 893.877 301.273 892.786 301.273C891.945 301.273 891.272 301.134 890.766 300.855C890.261 300.571 889.871 300.25 889.599 299.892C889.326 299.528 889.116 299.227 888.968 298.989H888.798V305.909H886.786ZM888.763 294.455C888.763 295.443 888.908 296.315 889.198 297.071C889.488 297.821 889.911 298.409 890.468 298.835C891.025 299.256 891.707 299.466 892.513 299.466C893.354 299.466 894.056 299.244 894.619 298.801C895.187 298.352 895.613 297.75 895.897 296.994C896.187 296.233 896.332 295.386 896.332 294.455C896.332 293.534 896.19 292.705 895.906 291.966C895.627 291.222 895.204 290.634 894.636 290.202C894.073 289.764 893.366 289.545 892.513 289.545C891.695 289.545 891.008 289.753 890.451 290.168C889.894 290.577 889.474 291.151 889.19 291.889C888.906 292.622 888.763 293.477 888.763 294.455ZM906.729 301.273C905.548 301.273 904.511 300.991 903.619 300.429C902.732 299.866 902.039 299.08 901.539 298.068C901.045 297.057 900.798 295.875 900.798 294.523C900.798 293.159 901.045 291.969 901.539 290.952C902.039 289.935 902.732 289.145 903.619 288.582C904.511 288.02 905.548 287.739 906.729 287.739C907.911 287.739 908.945 288.02 909.832 288.582C910.724 289.145 911.417 289.935 911.911 290.952C912.411 291.969 912.661 293.159 912.661 294.523C912.661 295.875 912.411 297.057 911.911 298.068C911.417 299.08 910.724 299.866 909.832 300.429C908.945 300.991 907.911 301.273 906.729 301.273ZM906.729 299.466C907.627 299.466 908.366 299.236 908.945 298.776C909.525 298.315 909.954 297.71 910.232 296.96C910.511 296.21 910.65 295.398 910.65 294.523C910.65 293.648 910.511 292.832 910.232 292.077C909.954 291.321 909.525 290.71 908.945 290.244C908.366 289.778 907.627 289.545 906.729 289.545C905.832 289.545 905.093 289.778 904.513 290.244C903.934 290.71 903.505 291.321 903.227 292.077C902.948 292.832 902.809 293.648 902.809 294.523C902.809 295.398 902.948 296.21 903.227 296.96C903.505 297.71 903.934 298.315 904.513 298.776C905.093 299.236 905.832 299.466 906.729 299.466ZM917.607 296.227L917.572 293.739H917.982L923.709 287.909H926.197L920.095 294.08H919.925L917.607 296.227ZM915.732 301V283.545H917.743V301H915.732ZM924.05 301L918.936 294.523L920.368 293.125L926.607 301H924.05ZM941.4 301.239C940.275 301.239 939.272 301.045 938.391 300.659C937.516 300.273 936.82 299.736 936.303 299.048C935.792 298.355 935.513 297.551 935.468 296.636H937.616C937.661 297.199 937.854 297.685 938.195 298.094C938.536 298.497 938.982 298.81 939.533 299.031C940.085 299.253 940.695 299.364 941.366 299.364C942.116 299.364 942.781 299.233 943.36 298.972C943.94 298.71 944.394 298.347 944.724 297.881C945.053 297.415 945.218 296.875 945.218 296.261C945.218 295.619 945.059 295.054 944.741 294.565C944.423 294.071 943.957 293.685 943.343 293.406C942.729 293.128 941.979 292.989 941.093 292.989H939.695V291.114H941.093C941.786 291.114 942.394 290.989 942.917 290.739C943.445 290.489 943.857 290.136 944.153 289.682C944.454 289.227 944.604 288.693 944.604 288.08C944.604 287.489 944.474 286.974 944.212 286.537C943.951 286.099 943.582 285.759 943.104 285.514C942.633 285.27 942.076 285.148 941.434 285.148C940.832 285.148 940.263 285.259 939.729 285.48C939.201 285.696 938.769 286.011 938.434 286.426C938.099 286.835 937.917 287.33 937.888 287.909H935.843C935.877 286.994 936.153 286.193 936.67 285.506C937.187 284.812 937.863 284.273 938.698 283.886C939.539 283.5 940.462 283.307 941.468 283.307C942.548 283.307 943.474 283.526 944.246 283.963C945.019 284.395 945.613 284.966 946.028 285.676C946.442 286.386 946.65 287.153 946.65 287.977C946.65 288.96 946.391 289.798 945.874 290.491C945.363 291.185 944.667 291.665 943.786 291.932V292.068C944.888 292.25 945.749 292.719 946.369 293.474C946.988 294.224 947.298 295.153 947.298 296.261C947.298 297.21 947.039 298.062 946.522 298.818C946.011 299.568 945.312 300.159 944.425 300.591C943.539 301.023 942.531 301.239 941.4 301.239Z" fill="black" fill-opacity="0.68"/>
</svg>
