<?xml version="1.0" standalone="no"?><svg xmlns="http://www.w3.org/2000/svg" viewBox="0 0 1440 320"><path fill="#55D74C" fill-opacity="1" d="M0,192L0,288L37.9,288L37.9,256L75.8,256L75.8,32L113.7,32L113.7,288L151.6,288L151.6,160L189.5,160L189.5,192L227.4,192L227.4,32L265.3,32L265.3,320L303.2,320L303.2,0L341.1,0L341.1,192L378.9,192L378.9,256L416.8,256L416.8,288L454.7,288L454.7,288L492.6,288L492.6,128L530.5,128L530.5,224L568.4,224L568.4,96L606.3,96L606.3,96L644.2,96L644.2,32L682.1,32L682.1,32L720,32L720,192L757.9,192L757.9,192L795.8,192L795.8,160L833.7,160L833.7,160L871.6,160L871.6,160L909.5,160L909.5,32L947.4,32L947.4,256L985.3,256L985.3,192L1023.2,192L1023.2,320L1061.1,320L1061.1,256L1098.9,256L1098.9,64L1136.8,64L1136.8,224L1174.7,224L1174.7,256L1212.6,256L1212.6,224L1250.5,224L1250.5,256L1288.4,256L1288.4,160L1326.3,160L1326.3,288L1364.2,288L1364.2,128L1402.1,128L1402.1,256L1440,256L1440,320L1402.1,320L1402.1,320L1364.2,320L1364.2,320L1326.3,320L1326.3,320L1288.4,320L1288.4,320L1250.5,320L1250.5,320L1212.6,320L1212.6,320L1174.7,320L1174.7,320L1136.8,320L1136.8,320L1098.9,320L1098.9,320L1061.1,320L1061.1,320L1023.2,320L1023.2,320L985.3,320L985.3,320L947.4,320L947.4,320L909.5,320L909.5,320L871.6,320L871.6,320L833.7,320L833.7,320L795.8,320L795.8,320L757.9,320L757.9,320L720,320L720,320L682.1,320L682.1,320L644.2,320L644.2,320L606.3,320L606.3,320L568.4,320L568.4,320L530.5,320L530.5,320L492.6,320L492.6,320L454.7,320L454.7,320L416.8,320L416.8,320L378.9,320L378.9,320L341.1,320L341.1,320L303.2,320L303.2,320L265.3,320L265.3,320L227.4,320L227.4,320L189.5,320L189.5,320L151.6,320L151.6,320L113.7,320L113.7,320L75.8,320L75.8,320L37.9,320L37.9,320L0,320L0,320Z"></path></svg>