<?xml version="1.0" standalone="no"?><svg xmlns="http://www.w3.org/2000/svg" viewBox="0 0 1440 320"><path fill="#55D74C" fill-opacity="1" d="M0,64L24,96C48,128,96,192,144,202.7C192,213,240,171,288,165.3C336,160,384,192,432,192C480,192,528,160,576,165.3C624,171,672,213,720,213.3C768,213,816,171,864,176C912,181,960,235,1008,218.7C1056,203,1104,117,1152,101.3C1200,85,1248,139,1296,165.3C1344,192,1392,192,1416,192L1440,192L1440,320L1416,320C1392,320,1344,320,1296,320C1248,320,1200,320,1152,320C1104,320,1056,320,1008,320C960,320,912,320,864,320C816,320,768,320,720,320C672,320,624,320,576,320C528,320,480,320,432,320C384,320,336,320,288,320C240,320,192,320,144,320C96,320,48,320,24,320L0,320Z"></path></svg>