<?xml version="1.0" standalone="no"?><svg xmlns="http://www.w3.org/2000/svg" viewBox="0 0 1440 320"><path fill="#4a7280" fill-opacity="1" d="M0,288L34.3,261.3C68.6,235,137,181,206,165.3C274.3,149,343,171,411,192C480,213,549,235,617,245.3C685.7,256,754,256,823,245.3C891.4,235,960,213,1029,213.3C1097.1,213,1166,235,1234,245.3C1302.9,256,1371,256,1406,256L1440,256L1440,320L1405.7,320C1371.4,320,1303,320,1234,320C1165.7,320,1097,320,1029,320C960,320,891,320,823,320C754.3,320,686,320,617,320C548.6,320,480,320,411,320C342.9,320,274,320,206,320C137.1,320,69,320,34,320L0,320Z"></path></svg>